<?xml version="1.0" encoding="UTF-8"?>
<svg id="svg2334" xmlns="http://www.w3.org/2000/svg" viewBox="0 0 346.72 307.43">
  <g id="layer1">
    <path id="path2525" d="M155.76.36s-.37-.22-.52-.24c-.55-.16-.64-.11-.77-.09-.45.02-.44.08-.61.13-.3.07-.82.23-1.59.46L7.32,27.76,1.96,58.39l-.2.97c-.66,1.46-1.12,2.53-1.37,3.21-.09.26-.18.49-.24.74-.15.39-.25,1.05,0,1.65.05.15.14.21.21.32l29.71,111.71c-.05.19-.05.4.02.85.04.25.13.63.51,1.04.25.29.66.47,1.05.55v.06s.2-.04.2-.04c.11.02.22.04.34.01.31,0,.55-.06.72-.13l114.05-11.93c.27.07.49.22,1.11.28.41.06,1.01.04,1.65-.31.64-.35,1.1-1.06,1.25-1.67l.1-.42h0s26.92-19.69,26.92-19.69L156.55,2.19s0-.06,0-.06c0,0-.05-.31-.12-.57v-.12s0,0,0,0c-.03-.14-.07-.32-.07-.32,0,0-.62-.7-.62-.7h0s.03-.05.03-.05ZM155.32.68s.31.33.31.33c0,0,.09.24.18.46l-1.61.07-.37-1.22c.05,0-.12-.19.76.03.11.02.26.06.42.17.09.05.29.19.29.19l.02-.02ZM152.3,5.19l-10.1,130.93-71.29-13.87L31.83,60.03,152.3,5.19ZM138.84,7.06L28.45,57.3c-.14.02-.25.04-.38.06-.31.06-1.19.19-2.45.39-6.11.9-9.09.79-20.25,3.04q.02-.1.09-.21l.09-.21,5.12-29.31L138.84,7.06ZM155.12,18.97l18.69,124.89-23.33,17.05-4.57-22.59,9.21-119.35ZM142.3,140.11l4.48,23.41-110.25,11.53,34.38-48.84,71.38,13.89ZM28.04,61.32l39.33,62.63-34.33,48.99L4.43,65.36c.93-.2,1.56-.36,3.25-.66,2.64-.48,5.92-1.04,9.12-1.57,4.3-.71,7.32-1.2,9.28-1.51.6-.08,1.26-.19,1.95-.3h0Z"/>
  </g>
  <g id="layer1-2" data-name="layer1">
    <path id="path2525-2" data-name="path2525" d="M223.44,95.23s-.41.13-.53.23c-.49.3-.51.4-.58.51-.28.35-.23.38-.31.54-.15.27-.37.77-.71,1.49l-76.13,126.31,19.32,24.37.6.79c.65,1.46,1.14,2.52,1.49,3.16.14.24.25.46.39.67.19.37.62.89,1.22,1.1.14.06.25.04.38.05l103.18,52.1c.11.16.26.31.65.55.21.13.56.33,1.12.32.38,0,.79-.18,1.11-.42l.05.04.1-.17c.09-.07.18-.14.24-.24.2-.24.32-.45.38-.63l66.93-93.11c.23-.15.5-.22.95-.65.32-.26.7-.73.86-1.43.16-.71-.06-1.53-.42-2.04l-.24-.36h0s3.21-33.2,3.21-33.2l-121.38-79.35s-.05-.04-.05-.04c0,0-.26-.17-.5-.29l-.1-.07h0c-.13-.07-.29-.16-.29-.16,0,0-.94,0-.94,0h0s-.02-.06-.02-.06ZM223.39,95.77s.45-.01.45-.01c0,0,.24.09.46.16l-1.02,1.25-1.16-.54s-.22-.04.53-.55c.09-.07.22-.15.41-.2.09-.03.33-.09.33-.09v-.03ZM224.75,101.03l91.07,94.62-57.77,44.02-72.46-12.19,39.16-126.44ZM217.19,112.32l-35.88,115.85c-.07.12-.14.22-.21.33-.16.27-.65,1.01-1.34,2.09-3.39,5.16-5.45,7.32-11.2,17.15q-.07-.08-.1-.21l-.1-.21-18.48-23.32,67.29-111.68ZM236.92,108.08l105.7,69.1-2.78,28.76-19.91-11.61-83.01-86.25ZM318.86,198.22l20.47,12.22-64.7,90-13.61-58.16,57.84-44.07ZM184.03,231.16l72.93,12.28,13.76,58.21-99.36-50.17c.47-.83.77-1.4,1.67-2.87,1.4-2.29,3.16-5.11,4.89-7.85,2.33-3.69,3.97-6.26,5.05-7.93.34-.5.7-1.07,1.07-1.66h0Z"/>
  </g>
</svg>